<svg width="800" height="794" viewBox="0 0 800 794" fill="none" xmlns="http://www.w3.org/2000/svg">
<path d="M7.76917 325.932L96.7084 311.504L83.2518 375.133L7.76917 325.932Z" fill="#D9D9D9"/>
<path d="M59.1614 189.491L148.172 203.472L115.573 259.748L59.1614 189.491Z" fill="#D9D9D9"/>
<path d="M164.881 68.6501L240.121 118.22L187.153 155.956L164.881 68.6501Z" fill="#D9D9D9"/>
<path d="M308.703 9.3147L358.656 84.3018L295.165 98.3937L308.703 9.3147Z" fill="#D9D9D9"/>
<path d="M792.208 325.753L703.268 311.325L716.725 374.954L792.208 325.753Z" fill="#D9D9D9"/>
<path d="M740.815 189.312L651.805 203.294L684.404 259.57L740.815 189.312Z" fill="#D9D9D9"/>
<path d="M640.096 68.4713L564.855 118.042L617.824 155.777L640.096 68.4713Z" fill="#D9D9D9"/>
<path d="M485.273 8.13599L435.321 83.1231L498.811 97.215L485.273 8.13599Z" fill="#D9D9D9"/>
<path d="M7.76917 467.918L96.7084 482.346L83.2518 418.717L7.76917 467.918Z" fill="#D9D9D9"/>
<path d="M59.1614 604.359L148.172 590.378L115.573 534.102L59.1614 604.359Z" fill="#D9D9D9"/>
<path d="M164.881 725.2L240.121 675.63L187.153 637.894L164.881 725.2Z" fill="#D9D9D9"/>
<path d="M308.703 784.535L358.656 709.548L295.165 695.456L308.703 784.535Z" fill="#D9D9D9"/>
<path d="M792.208 468.097L703.268 482.524L716.725 418.896L792.208 468.097Z" fill="#D9D9D9"/>
<path d="M740.815 604.538L651.805 590.556L684.404 534.28L740.815 604.538Z" fill="#D9D9D9"/>
<path d="M640.096 725.379L564.855 675.808L617.824 638.073L640.096 725.379Z" fill="#D9D9D9"/>
<path d="M485.273 785.714L435.321 710.727L498.811 696.635L485.273 785.714Z" fill="#D9D9D9"/>
</svg>
