<svg width="254" height="101" viewBox="0 0 254 101" fill="none" xmlns="http://www.w3.org/2000/svg">
<path d="M89.5084 87.647C107.008 93.9804 145.708 104.747 160.508 97.147C175.308 89.547 202.342 93.9804 214.008 97.147C223.008 95.9804 239.508 89.847 233.508 74.647C226.008 55.647 274.5 45.0334 241.5 25.5334C215.1 9.93338 229.5 -10.9666 193 9.53345C183 15.1499 180.5 22.0335 152.5 14.147C137.471 9.91406 132.5 39.0334 110.5 22.0335C94.1761 9.41965 69 0.0334797 59 22.0335C51 39.6335 44.0084 41.647 35.5084 41.647C18.6751 44.4803 -10.7916 53.447 6.00842 66.647C27.0084 83.147 60.5 71.0335 89.5084 87.647Z" fill="#D9D9D9" stroke="white"/>
</svg>
