<svg width="216" height="83" viewBox="0 0 216 83" fill="none" xmlns="http://www.w3.org/2000/svg">
<path d="M93.4049 80.6965C84.6049 85.4965 50.7382 78.6965 34.9049 74.6965C-12.0951 74.6965 -1.09499 24.6966 13.9049 18.1966C20.0258 15.5443 30.4049 -3.80343 53.9049 9.19668C70.1462 18.1812 80.9049 6.19668 89.9049 3.69664C97.1049 1.69661 97.4049 3.00009 103.405 1C128.905 1 143.905 7.0827 143.905 18.1966C143.905 27.8932 157.405 36.6968 177.405 25.1966C204.905 21.1966 230.283 40.1994 204.905 52.1966C177.405 65.1967 204.905 86.4053 155.905 80.6965C138.738 78.6965 102.205 75.8965 93.4049 80.6965Z" fill="#D9D9D9" stroke="white"/>
</svg>
